<svg width="219" height="87" viewBox="0 0 219 87" fill="none" xmlns="http://www.w3.org/2000/svg">
<path d="M163.28 42.9567C163.863 43.3065 164.184 43.5398 164.534 43.6856C170.249 45.9307 171.998 52.3745 170.54 58.031C169.024 63.9499 163.426 67.7987 157.594 67.9736C150.013 68.1777 142.433 68.1194 134.881 68.236C133.714 68.2652 133.394 67.7695 133.394 66.6615C133.423 51.4414 133.423 36.2505 133.394 21.0304C133.394 19.9224 133.714 19.4559 134.881 19.4559C142.403 19.5433 149.955 19.4267 157.448 19.7474C161.997 19.9515 165.758 22.1092 168.033 26.2204C171.065 31.7019 169.782 38.8455 164.592 41.9361C164.155 42.1986 163.834 42.5193 163.28 42.9567ZM149.518 46.6596C147.127 46.6305 144.765 46.6596 142.374 46.6305C141.47 46.6305 141.062 46.922 141.091 47.9134C141.12 51.9371 141.12 55.9608 141.091 60.0137C141.091 60.9176 141.47 61.2091 142.316 61.2091C146.923 61.18 151.53 61.2966 156.136 61.0925C158.848 60.9759 161.239 59.7221 162.551 57.1854C165.117 52.1995 161.997 46.9804 156.37 46.7179C154.066 46.6013 151.792 46.6596 149.518 46.6596ZM148.905 39.8077C148.905 39.7785 148.905 39.7785 148.905 39.7494C151.151 39.7494 153.396 39.866 155.612 39.7202C159.402 39.4869 162.026 36.8919 162.172 33.3639C162.289 30.1858 159.898 26.9201 156.661 26.6869C151.879 26.3078 147.069 26.3953 142.258 26.3078C141.47 26.3078 141.062 26.716 141.091 27.5908C141.12 31.2354 141.15 34.8801 141.091 38.5247C141.091 39.4578 141.412 39.8077 142.374 39.8077C144.532 39.7785 146.719 39.8077 148.905 39.8077Z" fill="#132630"/>
<path d="M106.39 18.7269C112.28 18.6978 117.266 20.8846 121.698 24.6167C122.719 25.4623 122.835 26.1329 121.756 27.0368C120.678 27.9406 119.745 29.0195 118.782 30.0108C118.083 30.7398 117.441 30.7106 116.654 30.04C111.726 25.8705 106.157 24.7333 100.209 27.2409C93.6196 30.04 90.2082 35.3174 89.7417 42.461C89.4793 46.2806 90.0041 50.0127 91.8119 53.4824C96.5353 62.5212 108.665 64.8246 116.333 58.0601C117.704 56.8647 118.024 56.8355 119.395 58.031C120.328 58.8182 121.202 59.6638 122.165 60.4219C123.068 61.1217 122.952 61.6757 122.252 62.4337C118.549 66.2533 114.059 68.4401 108.84 69.1108C95.4565 70.8602 84.6392 61.8214 82.569 49.138C81.4027 41.907 82.4815 35.1717 86.651 29.1361C91.3162 22.2258 98.0515 18.8727 106.39 18.7269Z" fill="#132630"/>
<path d="M218.679 61.2675C215.326 65.2621 211.098 67.7113 206.025 68.7901C194.275 71.3268 182.262 64.0958 178.792 51.5581C175.293 38.8747 180.687 25.958 192.613 20.7972C201.564 16.9193 209.961 18.3188 217.513 24.6168C218.475 25.4332 218.446 26.0163 217.542 26.8328C216.58 27.7075 215.764 28.7571 214.831 29.661C214.102 30.3899 213.314 30.594 212.411 29.836C202.876 21.7011 188.414 27.066 185.907 39.4287C184.42 46.6889 185.732 53.1618 191.563 58.2352C197.307 63.2211 205.996 63.2211 211.74 58.206C213.402 56.7481 214.335 56.9814 215.676 58.3226C216.58 59.1974 217.542 60.0429 218.475 60.8885C218.504 60.9468 218.534 61.0343 218.679 61.2675Z" fill="#132630"/>
<path d="M49.0492 0C48.8813 1.00886 48.7934 2.04156 48.7934 3.09277C48.7934 6.07865 49.4963 8.91614 50.7592 11.4775C50.4779 11.579 50.1926 11.687 49.932 11.7998C48.1783 12.5584 46.4865 13.4263 44.8578 14.4053C44.5388 14.5966 44.2859 14.76 44.099 14.8945C43.7671 15.1336 43.4177 15.3137 43.0912 15.5596C42.6655 15.8792 42.1597 16.2363 41.5746 16.6309C41.1177 16.9397 40.6195 17.3066 40.0805 17.7314C38.8429 18.7063 38.0146 19.3752 37.5951 19.7373C37.4878 19.8297 37.3878 19.9146 37.2953 19.9922C37.0538 20.194 36.754 20.4483 36.3969 20.7549C35.4947 21.5291 34.5956 22.4182 33.7963 23.2012C33.6196 23.3739 33.441 23.6049 33.2319 23.833C32.3113 24.8385 31.6866 25.5588 31.3578 25.9941C30.8747 26.634 30.6083 26.9856 30.56 27.0488C29.8787 27.9428 29.2601 28.8275 28.6899 29.6924C28.3206 30.2531 28.0271 30.7454 27.81 31.168C27.7734 31.2385 27.7218 31.2856 27.6547 31.3086C27.6516 31.3096 27.6481 31.3092 27.6449 31.3086C27.6418 31.308 27.6385 31.3067 27.6361 31.3047C27.6339 31.3027 27.6322 31.2997 27.6313 31.2969C27.6304 31.294 27.6306 31.291 27.6313 31.2881C27.6972 30.9568 27.7614 30.686 27.8246 30.4756C28.0522 29.7137 28.2151 28.9441 28.4643 28.1924C28.6498 27.6317 28.8008 27.0184 28.9545 26.5674C29.0805 26.1971 29.2133 25.7685 29.352 25.2822C29.5978 24.4213 29.9927 23.4114 30.2426 22.7158C30.4187 22.2272 30.628 21.7048 30.8705 21.1494C31.0893 20.6488 31.4655 19.7176 31.8481 18.9619C31.891 18.8769 31.9932 18.6637 32.1547 18.3223C32.785 16.9921 33.4645 15.7183 34.1928 14.501C34.4542 14.0639 34.7148 13.6681 34.974 13.3154C35.3667 12.7812 35.6678 12.2879 36.0639 11.7686C37.1913 10.2912 37.9116 9.37492 38.224 9.01953C38.4218 8.79421 38.83 8.35337 39.4477 7.69727C39.8328 7.28781 40.1676 6.94884 40.4516 6.68066C40.8488 6.30552 41.1926 5.97537 41.4838 5.69141C41.4872 5.68809 41.5776 5.60812 41.7533 5.45117C43.0893 4.26197 44.3773 3.22418 45.6176 2.33789C46.1052 1.98912 46.4948 1.60955 47.0121 1.29395C47.627 0.918199 48.3052 0.485349 49.0492 0Z" fill="#132630"/>
<path d="M31.8042 64.0795L31.7852 64.0903C31.7808 64.0929 31.7758 64.0942 31.7707 64.094C31.7656 64.0937 31.7608 64.092 31.7568 64.089C30.6397 63.2143 29.6817 62.4367 28.8829 61.7562C28.6472 61.5551 28.4088 61.3051 28.171 61.0925C27.3402 60.3501 26.8367 59.8891 26.6606 59.7094C25.2463 58.2626 24.1992 57.0956 23.1683 55.6881C22.8086 55.1963 22.3027 54.5204 21.8793 53.8606C21.0824 52.6171 20.3572 51.3288 19.7038 49.9958C19.5475 49.677 19.4175 49.3869 19.3136 49.1255C19.1666 48.7563 18.9485 48.3255 18.8043 47.9598C18.4162 46.9763 18.0132 45.9068 17.7063 44.8265C17.6874 44.7605 17.6223 44.5472 17.5113 44.1864C17.3948 43.8093 17.274 43.3761 17.1489 42.8866C17.0046 42.3217 16.9017 41.7216 16.7676 41.1316C16.6219 40.4895 16.5183 39.7465 16.4106 39.122C16.076 37.1862 15.9148 35.2037 15.8755 33.2178C15.8724 33.0778 15.8845 32.656 15.9121 31.9525C15.9279 31.5402 15.9582 31.1199 16.0029 30.6913C16.1112 29.6433 16.2011 28.826 16.2724 28.2394C16.467 26.6468 16.7468 24.9219 17.1116 23.0646C17.1821 22.7061 17.2444 22.4295 17.2986 22.2349C17.3914 21.9037 17.4578 21.5373 17.5729 21.1302C17.8655 20.0925 18.1917 19.012 18.5516 17.8885C18.7377 17.3069 18.9316 16.7784 19.1335 16.3029C19.2504 16.0274 19.3432 15.8003 19.4118 15.6215C19.655 14.9841 19.9469 14.4111 20.2477 13.7595C20.4838 13.2475 20.6559 12.732 20.7638 12.2132C20.7895 12.089 20.8663 12.038 20.9941 12.0601C21.5296 12.1531 21.9184 12.2358 22.1604 12.308C22.2757 12.3427 22.3942 12.3654 22.514 12.3757C22.8445 12.4035 23.1581 12.4699 23.4446 12.476C23.6718 12.4814 23.9653 12.5044 24.3252 12.5451C24.9849 12.6203 25.9101 12.6006 26.3714 12.6223C26.5384 12.6304 26.9268 12.6297 27.5364 12.6203C28.3406 12.6076 29.4049 12.5695 30.7293 12.5058C30.7392 12.5053 30.7575 12.5083 30.7842 12.5146C30.7952 12.5171 30.8055 12.5223 30.8142 12.5296C30.8229 12.5368 30.8297 12.5461 30.8341 12.5565C30.8386 12.567 30.8405 12.5783 30.8397 12.5896C30.8389 12.6009 30.8354 12.6119 30.8295 12.6216C30.5383 13.1025 30.2423 13.5502 29.9863 14.0589C29.653 14.7227 29.3008 15.3844 28.5646 16.7445C28.4444 16.9653 28.1952 17.5087 27.8168 18.3748C27.638 18.7839 27.4598 19.1804 27.2824 19.5642C26.918 20.3526 26.6091 21.2467 26.3104 21.9816C26.1533 22.369 26.0248 22.7248 25.925 23.0491C25.7381 23.6566 25.6534 23.9885 25.4651 24.4931C25.2314 25.121 25.1237 25.6182 24.8907 26.1763C24.8212 26.3438 24.7216 26.6226 24.592 27.0128C24.3559 27.7244 24.0915 28.726 23.7989 30.0174C23.7537 30.217 23.709 30.4497 23.6648 30.7157C23.6363 30.8855 23.6198 30.9826 23.6153 31.007C23.4677 31.7471 23.3071 32.6931 23.1337 33.845C23.0245 34.5715 22.9452 35.3066 22.896 36.0503C22.822 37.1675 22.7811 37.9055 22.7734 38.2645C22.7395 39.7607 22.6847 40.9528 22.7809 42.2824C22.8278 42.9304 22.8518 43.2675 22.8527 43.2937C22.8777 43.7868 22.9109 44.4004 22.9908 44.9389C23.1584 46.0664 23.3428 47.1842 23.5442 48.2923C23.5821 48.4996 23.6287 48.6935 23.6837 48.8742C23.7759 49.1749 23.8077 49.4919 23.8808 49.7527C23.9906 50.1401 24.157 50.7206 24.38 51.4941C24.4672 51.7966 24.5494 52.0531 24.6266 52.2635C24.7499 52.6001 24.8399 52.9212 24.9869 53.2788C25.4805 54.4827 25.9135 55.4636 26.286 56.2218C26.6662 56.9958 27.1641 57.8844 27.7795 58.8878C27.9471 59.1605 28.1503 59.4592 28.3891 59.7839C28.6628 60.155 28.9229 60.5831 29.2297 60.9638C30.0678 62.0059 30.9289 63.0256 31.813 64.0226C31.8167 64.0267 31.8194 64.0315 31.821 64.0368C31.8225 64.0421 31.8229 64.0477 31.8221 64.0531C31.8212 64.0585 31.8192 64.0637 31.8161 64.0683C31.813 64.0729 31.8089 64.0767 31.8042 64.0795Z" fill="#132630"/>
<path d="M41.164 71.153C41.1468 71.1796 41.1123 71.193 41.0604 71.193C39.7003 71.2004 38.859 71.2424 37.6764 71.2072C37.4452 71.2 37.0072 71.1875 36.3624 71.1699C35.8215 71.155 35.1254 71.0993 34.2742 71.0026C33.6195 70.9281 32.5556 70.7581 31.0827 70.4926C30.7106 70.4253 30.3182 70.3348 29.9055 70.221C29.6747 70.1573 29.2855 70.0499 28.7377 69.8986C27.6897 69.6087 26.4834 69.1917 25.1188 68.6476C24.1563 68.2642 23.4058 67.8686 22.3445 67.3539C21.0955 66.7483 19.8253 65.9701 18.5338 65.0191C17.7946 64.475 17.2918 64.0923 17.0254 63.8711C16.4104 63.3608 15.8956 62.9384 15.4811 62.6038C15.2535 62.4204 14.8374 62.0285 14.2328 61.4279C14.0179 61.2144 13.8551 61.0581 13.7444 60.9592C13.4959 60.735 13.2967 60.5677 13.12 60.3754C12.9371 60.1767 12.6388 59.8642 12.2252 59.438C12.0484 59.2551 11.8249 58.9631 11.6176 58.739C11.1119 58.1917 10.7538 57.7839 10.5434 57.5157C9.65068 56.3785 9.20704 55.8583 8.62318 55.0062C8.27368 54.4962 7.97092 54.1203 7.66883 53.6306C7.29969 53.0311 6.80253 52.2969 6.43 51.6534C6.33924 51.4968 6.05363 51.0012 5.57318 50.1667C5.29999 49.6921 5.08663 49.2805 4.9331 48.9319C4.70891 48.4226 4.38583 47.855 4.10609 47.2461C3.47753 45.8756 2.94267 44.5575 2.5015 43.2918C2.37868 42.9396 2.16758 42.3102 1.8682 41.4035C1.39611 39.9736 1.02425 38.5472 0.769578 37.3172C0.741582 37.1812 0.730519 37.0776 0.73639 37.0063C0.737359 36.9948 0.741881 36.984 0.749305 36.9754C0.75673 36.9667 0.766673 36.9607 0.777706 36.9582C1.82034 36.7066 2.71554 36.4457 3.46331 36.1752C3.59426 36.1278 4.11015 35.9194 5.011 35.55C5.64317 35.2908 6.15229 35.0671 6.53837 34.8788C8.07793 34.1269 9.13321 33.6142 10.2996 32.8536C10.9119 32.4539 11.1713 32.2656 11.6305 32.0225C11.7578 31.9552 11.9089 31.8565 12.0836 31.7265C12.1067 31.7093 12.1277 31.701 12.1466 31.7014C12.1556 31.7015 12.1644 31.7034 12.1725 31.7071C12.1807 31.7108 12.188 31.7161 12.194 31.7228C12.2 31.7295 12.2045 31.7374 12.2073 31.7459C12.2101 31.7545 12.2111 31.7636 12.2103 31.7726C12.1697 32.2097 12.1661 32.6235 12.1995 33.0141C12.2943 34.1217 12.3711 34.926 12.4298 35.4267C12.4523 35.6209 12.504 36.0966 12.5849 36.8539C12.7167 38.0943 12.8851 39.1789 13.0901 40.1077C13.1669 40.4545 13.2304 40.7483 13.2805 40.9889C13.462 41.862 13.7025 42.7093 13.9314 43.577C14.0971 44.2042 14.2653 44.7693 14.436 45.2723C14.6902 46.0215 14.9408 46.7437 15.1878 47.4391C15.6462 48.7287 16.1979 50.0689 16.8432 51.4597C17.0577 51.9212 17.2966 52.3836 17.5598 52.8469C17.8931 53.4341 18.2053 54.039 18.5867 54.6587C19.4665 56.0886 20.4168 57.5096 21.5086 58.7931C22.2695 59.6868 23.018 60.5018 23.754 61.2383C24.0538 61.5386 24.5889 62.0463 25.3592 62.7616C25.9273 63.2895 26.4807 63.7645 27.0194 64.1867C27.9035 64.8803 28.7179 65.484 29.4625 65.9979C29.8748 66.2819 30.3218 66.5609 30.8036 66.835C31.5482 67.2586 32.0036 67.5239 32.1698 67.6309C32.4064 67.7826 32.6647 67.9192 32.9446 68.0407C33.0431 68.0836 33.3029 68.2193 33.7242 68.4478C34.3636 68.7952 34.9197 68.9957 35.5645 69.3012C35.7542 69.391 36.005 69.4911 36.317 69.6012C37.2052 69.9155 37.7428 70.1083 37.9298 70.1797C38.5868 70.4296 39.3799 70.6694 39.9272 70.836C40.3291 70.9588 40.7282 71.0376 41.1247 71.0724C41.1337 71.0731 41.1424 71.0762 41.1498 71.0813C41.1573 71.0864 41.1633 71.0934 41.1673 71.1015C41.1712 71.1097 41.173 71.1187 41.1724 71.1277C41.1719 71.1367 41.1689 71.1454 41.164 71.153Z" fill="#132630"/>
<path d="M33.8836 73.5753C33.8923 73.5738 33.9011 73.5753 33.9088 73.5796C33.9165 73.5839 33.9224 73.5906 33.9258 73.5988C33.9291 73.6069 33.9295 73.6159 33.927 73.6243C33.9245 73.6327 33.9193 73.64 33.9121 73.645C33.8615 73.6807 33.8161 73.7058 33.7759 73.7202C32.3915 74.2126 31.0354 74.5743 29.609 74.7585C29.3056 74.7978 28.8757 74.8638 28.3194 74.9563C27.4388 75.1026 26.5712 75.1988 25.2789 75.3709C25.1985 75.3817 24.5178 75.4388 23.2367 75.5422C22.5097 75.6009 21.8292 75.6165 21.1952 75.5889C20.1068 75.5415 19.0671 75.4704 18.045 75.3207C17.8915 75.2986 17.6761 75.269 17.3988 75.232C16.4515 75.1056 15.4768 74.9444 14.4748 74.7484C14.0445 74.664 13.5977 74.5459 13.1344 74.3941C11.8488 73.9722 11.2392 73.7778 10.2104 73.3646C9.74798 73.179 9.27272 72.9684 8.78459 72.7327C7.36718 72.0477 5.99536 71.2421 4.66916 70.316C4.43887 70.1552 3.89001 69.756 3.02258 69.1185C2.74307 68.913 2.32786 68.5667 1.77697 68.0794C1.01159 67.4035 0.456186 66.9259 0.0301471 66.4626C0.0101906 66.441 -0.000605273 66.4125 2.6221e-05 66.3831C0.000657715 66.3536 0.0126677 66.3256 0.0335339 66.3048C0.962149 65.383 1.55887 64.3365 2.28971 63.0963C2.50284 62.7351 2.68888 62.3763 2.84783 62.0201C3.15466 61.3319 3.48587 60.7149 3.74393 60.1987C4.23296 59.2213 4.6082 58.0401 4.91977 57.1013C4.93783 57.0471 4.97531 57.0196 5.0322 57.0187C5.08865 57.0182 5.13358 57.0446 5.16699 57.0979C5.59732 57.7847 6.03578 58.4203 6.48236 59.0046C7.03777 59.7314 7.51122 60.3958 8.03615 60.958C8.62362 61.5861 9.06568 62.0424 9.36235 62.3269C10.6163 63.5285 11.9055 64.6686 13.2299 65.7474C14.6103 66.8722 15.9527 67.8336 17.2573 68.6314C18.5961 69.4506 19.9113 70.1545 21.2027 70.7434C21.7504 70.9931 22.4377 71.2724 23.2645 71.5812C24.1118 71.8968 25.0594 72.159 25.9575 72.4231C26.5825 72.6069 27.2352 72.772 27.9157 72.9183C28.9692 73.1445 29.63 73.2775 29.8982 73.3172C30.3868 73.389 31.2005 73.4888 32.3393 73.6166C32.8437 73.6735 33.3585 73.6597 33.8836 73.5753Z" fill="#132630"/>
<path d="M72.3662 78.0429C72.3161 78.0731 72.2579 78.1104 72.1915 78.1546C71.0328 78.9236 70.115 79.5063 69.4382 79.9028C67.5572 81.0035 65.5876 81.928 63.6558 82.6886C63.0476 82.928 62.2924 83.2174 61.3902 83.557C60.7878 83.7832 60.2881 83.9489 59.8912 84.0541C59.2383 84.2275 58.6558 84.4314 57.8667 84.6346C56.4506 84.9995 55.6008 85.2121 55.3172 85.2726C53.3909 85.6845 52.3113 85.9351 51.4551 86.0644C50.5705 86.1986 49.4742 86.3234 48.166 86.439C46.4109 86.5934 44.8203 86.6271 43.3943 86.5399C41.6285 86.4316 40.6179 86.3835 39.4041 86.1884C38.8031 86.0918 38.4599 86.0371 38.3746 86.0245C37.8973 85.9545 37.2157 85.8091 36.3297 85.5883C35.8181 85.4605 35.5314 85.3885 35.4695 85.3722C34.2346 85.0403 33.3308 84.7685 32.7582 84.5567C32.4096 84.428 31.8461 84.2144 31.0676 83.916C29.7082 83.3951 28.4084 82.8024 27.173 82.1773C26.7494 81.9628 26.4211 81.7864 26.1881 81.6483C25.7648 81.3956 25.3706 81.1999 24.8951 80.9093C23.9432 80.3282 23.107 79.7929 22.3863 79.3034C22.2617 79.2185 22.1673 79.1216 22.1032 79.0128C22.0977 79.0038 22.0949 78.9934 22.095 78.9829C22.0951 78.9723 22.0981 78.962 22.1038 78.9531C22.1094 78.9442 22.1174 78.937 22.1268 78.9323C22.1363 78.9277 22.1469 78.9258 22.1574 78.9268C22.4053 78.9493 22.6489 78.9586 22.8882 78.9545C25.1568 78.9166 27.3906 78.8015 29.5897 78.6091C30.3286 78.5448 31.2362 78.3212 31.984 78.2068C32.7828 78.0849 33.8832 77.8514 35.2853 77.5064C36.1401 77.296 36.8323 77.1057 37.362 76.9354C37.707 76.8248 38.026 76.7277 38.3191 76.6442C39.3626 76.3466 40.6755 75.9237 42.2577 75.3756C43.3299 75.0044 44.0797 74.6738 45.1133 74.2884C45.661 74.0843 46.2551 73.8315 46.8954 73.5298C47.2577 73.3592 47.717 73.1742 48.0184 73.0442C48.6564 72.7692 49.7293 72.2562 51.237 71.5053C51.9789 71.1355 52.398 70.9271 52.4941 70.8801C53.0626 70.602 53.9734 70.1265 55.2265 69.4537C55.7837 69.1548 56.0946 68.9906 56.1592 68.9613C56.314 68.8913 56.6204 68.7199 57.0783 68.4472C57.3257 68.2995 57.7484 68.0591 58.3463 67.7258C58.6854 67.5366 59.1715 67.2465 59.8045 66.8555C60.5117 66.4193 61.2737 66.0135 61.8609 65.6478C61.8742 65.6395 61.8896 65.6352 61.9054 65.6355C61.9211 65.6357 61.9364 65.6405 61.9496 65.6491C62.0585 65.7227 62.1558 65.8128 62.2416 65.9194C62.5477 66.2994 62.839 66.6428 63.1438 67.0634C63.5 67.5545 63.857 68.0706 64.2681 68.5386C64.5621 68.8732 64.8411 69.2871 65.0762 69.5742C65.7779 70.4331 66.4301 71.3292 67.186 72.2849C67.9627 73.2675 68.529 73.9545 68.8848 74.346C68.9037 74.3668 69.2309 74.7235 69.8662 75.4162C70.6086 76.2249 71.3496 76.9239 72.1265 77.6202C72.2348 77.7173 72.3238 77.8121 72.3933 77.9047C72.4012 77.9153 72.4067 77.9275 72.4096 77.9404C72.4125 77.9534 72.4127 77.9667 72.4102 77.9797C72.4076 77.9927 72.4024 78.0051 72.3948 78.0159C72.3873 78.0268 72.3775 78.036 72.3662 78.0429Z" fill="#132630"/>
</svg>
