<svg xmlns="http://www.w3.org/2000/svg" viewBox="0 0 240 240" role="img" aria-labelledby="title desc">
  <title id="title">CBC Law WeChat QR placeholder</title>
  <desc id="desc">A decorative placeholder marking where the official WeChat QR code will appear.</desc>
  <rect width="240" height="240" rx="16" fill="#fff"/>
  <g fill="#0b1d30">
    <path d="M18 18h62v62H18zm12 12v38h38V30zM160 18h62v62h-62zm12 12v38h38V30zM18 160h62v62H18zm12 12v38h38v-38z"/>
    <path d="M98 22h18v18H98zm26 0h18v18h-18zM98 48h44v18H98zm0 28h18v18H98zm28 0h18v40h-18zM20 98h18v18H20zm28 0h42v18H48zm-28 28h18v18H20zm28 0h18v18H48zm28 0h40v18H76zm84-28h18v18h-18zm28 0h34v18h-34zm-28 28h42v18h-42zm52 0h30v18h-30zM98 160h18v18H98zm26 0h42v18h-42zm52 0h18v18h-18zm28 0h18v42h-18zM98 188h44v18H98zm54 0h42v18h-42zm-54 26h18v8H98zm28 0h68v8h-68zm78 0h18v8h-18z"/>
  </g>
  <rect x="82" y="87" width="76" height="66" rx="10" fill="#fff" stroke="#9a2a24" stroke-width="4"/>
  <text x="120" y="114" text-anchor="middle" font-family="Arial, sans-serif" font-size="16" font-weight="700" fill="#0b1d30">CBC LAW</text>
  <text x="120" y="136" text-anchor="middle" font-family="Arial, sans-serif" font-size="12" fill="#9a2a24">WECHAT</text>
</svg>
